<svg xmlns="http://www.w3.org/2000/svg" xmlns:xlink="http://www.w3.org/1999/xlink" version="1.1" x="0px" y="0px" viewBox="0 0 100 125" enable-background="new 0 0 100 100" xml:space="preserve"><g><path d="M59.7,23.9h-0.3h-5.7h-9.3l-6.8-7.7l0.1-11.4c0-1.8-1.4-3.3-3.2-3.3c-1.8,0-3.3,1.4-3.3,3.2L31,17.3c0,0.6,0.2,1.1,0.4,1.5   c0.1,0.3,0.3,0.6,0.5,0.9L42.7,32l0,15.9l0,46.8c0,2.3,1.9,4.2,4.2,4.2c2.3,0,4.2-1.9,4.2-4.2l0-35.1h1.9l0,35.1   c0,2.3,1.9,4.2,4.2,4.2c2.3,0,4.2-1.9,4.2-4.2l0-46.8l0-15.8h1.4v0.1v12.7v11.5c0,4.4,5.9,4.4,5.9,0V44.9V31.2   C68.6,27.2,65,23.9,59.7,23.9z"/><circle cx="51.8" cy="15.1" r="7.6"/></g><text x="0" y="115" fill="#000000" font-size="5px" font-weight="bold" font-family="'Helvetica Neue', Helvetica, Arial-Unicode, Arial, Sans-serif">Created by Marco Fleseri</text><text x="0" y="120" fill="#000000" font-size="5px" font-weight="bold" font-family="'Helvetica Neue', Helvetica, Arial-Unicode, Arial, Sans-serif">from the Noun Project</text></svg>