<?xml version="1.0" encoding="UTF-8" standalone="no"?>
<svg
   xmlns:dc="http://purl.org/dc/elements/1.1/"
   xmlns:cc="http://creativecommons.org/ns#"
   xmlns:rdf="http://www.w3.org/1999/02/22-rdf-syntax-ns#"
   xmlns:svg="http://www.w3.org/2000/svg"
   xmlns="http://www.w3.org/2000/svg"
   xmlns:sodipodi="http://sodipodi.sourceforge.net/DTD/sodipodi-0.dtd"
   xmlns:inkscape="http://www.inkscape.org/namespaces/inkscape"
   version="1.1"
   x="0px"
   y="0px"
   viewBox="0 0 100 125"
   enable-background="new 0 0 100 100"
   xml:space="preserve"
   id="svg2"
   inkscape:version="0.91 r13725"
   sodipodi:docname="noun_36706_cc.svg"><metadata
     id="metadata22"><rdf:RDF><cc:Work
         rdf:about=""><dc:format>image/svg+xml</dc:format><dc:type
           rdf:resource="http://purl.org/dc/dcmitype/StillImage" /><dc:title></dc:title></cc:Work></rdf:RDF></metadata><defs
     id="defs20" /><sodipodi:namedview
     pagecolor="#ffffff"
     bordercolor="#666666"
     borderopacity="1"
     objecttolerance="10"
     gridtolerance="10"
     guidetolerance="10"
     inkscape:pageopacity="0"
     inkscape:pageshadow="2"
     inkscape:window-width="640"
     inkscape:window-height="480"
     id="namedview18"
     showgrid="false"
     inkscape:zoom="1.888"
     inkscape:cx="50"
     inkscape:cy="62.5"
     inkscape:window-x="0"
     inkscape:window-y="0"
     inkscape:window-maximized="0"
     inkscape:current-layer="svg2" /><path
     d="M92.4,44.107V33.145c0-3.36-2.725-6.085-6.084-6.085h-18.52v27.915C76.057,52.859,84.246,49.259,92.4,44.107z"
     id="path4" /><path
     d="M31.955,27.06H13.984c-3.361,0-6.085,2.725-6.085,6.085v11.612c8.15,4.635,16.158,7.961,24.056,10.004V27.06z"
     id="path6" /><path
     d="M56.742,58.619v4.768H43.138v-4.863C31.624,57.348,19.91,53.396,7.899,46.679v29.377c0,3.361,2.724,6.084,6.085,6.084  h72.333c3.359,0,6.084-2.723,6.084-6.084V46.075C80.621,53.357,68.773,57.541,56.742,58.619z"
     id="path8" /><rect
     x="45.268"
     y="53.996"
     width="9.345"
     height="7.262"
     id="rect10" /><path
     d="M61.969,27.06v-2.976c0-4.287-3.488-7.774-7.773-7.774h-8.747c-4.287,0-7.774,3.487-7.774,7.774v2.976h-3.999v28.137  c3.17,0.746,6.324,1.291,9.463,1.623v-4.953h13.604v5.049c3.115-0.289,6.217-0.797,9.309-1.508V27.06H61.969z M41.055,24.084  c0-2.424,1.97-4.396,4.394-4.396h8.747c2.422,0,4.393,1.972,4.393,4.396v2.976H41.055V24.084z"
     id="path12" /></svg>