<?xml version="1.0" encoding="UTF-8" standalone="no"?>
<svg
   xmlns:dc="http://purl.org/dc/elements/1.1/"
   xmlns:cc="http://creativecommons.org/ns#"
   xmlns:rdf="http://www.w3.org/1999/02/22-rdf-syntax-ns#"
   xmlns:svg="http://www.w3.org/2000/svg"
   xmlns="http://www.w3.org/2000/svg"
   xmlns:sodipodi="http://sodipodi.sourceforge.net/DTD/sodipodi-0.dtd"
   xmlns:inkscape="http://www.inkscape.org/namespaces/inkscape"
   version="1.1"
   x="0px"
   y="0px"
   viewBox="0 0 100 125"
   enable-background="new 0 0 100 100"
   xml:space="preserve"
   id="svg2"
   inkscape:version="0.91 r13725"
   sodipodi:docname="noun_485413_cc_volunteer.svg"><metadata
     id="metadata18"><rdf:RDF><cc:Work
         rdf:about=""><dc:format>image/svg+xml</dc:format><dc:type
           rdf:resource="http://purl.org/dc/dcmitype/StillImage" /><dc:title /></cc:Work></rdf:RDF></metadata><defs
     id="defs16" /><sodipodi:namedview
     pagecolor="#ffffff"
     bordercolor="#666666"
     borderopacity="1"
     objecttolerance="10"
     gridtolerance="10"
     guidetolerance="10"
     inkscape:pageopacity="0"
     inkscape:pageshadow="2"
     inkscape:window-width="640"
     inkscape:window-height="480"
     id="namedview14"
     showgrid="false"
     inkscape:zoom="1.888"
     inkscape:cx="50"
     inkscape:cy="62.5"
     inkscape:window-x="0"
     inkscape:window-y="0"
     inkscape:window-maximized="0"
     inkscape:current-layer="svg2" /><g
     id="g4"
     transform="translate(0,12)"><path
       d="m 59.7,23.9 -0.3,0 -5.7,0 -9.3,0 -6.8,-7.7 0.1,-11.4 C 37.7,3 36.3,1.5 34.5,1.5 32.7,1.5 31.2,2.9 31.2,4.7 L 31,17.3 c 0,0.6 0.2,1.1 0.4,1.5 0.1,0.3 0.3,0.6 0.5,0.9 l 10.8,12.3 0,15.9 0,46.8 c 0,2.3 1.9,4.2 4.2,4.2 2.3,0 4.2,-1.9 4.2,-4.2 l 0,-35.1 1.9,0 0,35.1 c 0,2.3 1.9,4.2 4.2,4.2 2.3,0 4.2,-1.9 4.2,-4.2 l 0,-46.8 0,-15.8 1.4,0 0,0.1 0,12.7 0,11.5 c 0,4.4 5.9,4.4 5.9,0 l 0,-11.5 0,-13.7 c -0.1,-4 -3.7,-7.3 -9,-7.3 z"
       id="path6"
       inkscape:connector-curvature="0" /><circle
       cx="51.799999"
       cy="15.1"
       r="7.5999999"
       id="circle8" /></g></svg>